<?xml version="1.0" encoding="utf-8"?>
<svg viewBox="0 0 300 300" xmlns="http://www.w3.org/2000/svg">
  <rect fill="#242938" x="0" y="0" width="300" height="300" rx="64" ry="64"/>
  <path fill="#4dabcf" d="M 211.548 199.292 L 211.608 259.812 L 157.903 286.612 L 157.903 226.118 L 211.548 199.292 Z M 276 166.947 L 276 227.678 L 230.195 250.538 L 230.162 190.084 L 276 166.947 Z M 211.467 118.287 L 211.527 178.172 L 157.902 204.819 L 157.902 144.914 L 211.467 118.287 Z M 276 86.205 L 276 145.714 L 230.149 169.023 L 230.109 109.018 L 276 86.205 Z M 149.738 79.165 L 197.671 103.36 L 147.94 128.335 L 100.912 104.715 L 149.738 79.165 Z M 83.065 45.511 L 128.783 68.588 L 79.845 94.131 L 32.891 70.551 L 83.065 45.511 Z M 213.755 45.861 L 262.998 70.551 L 218.958 92.671 L 170.926 68.443 L 213.755 45.861 Z M 148.233 13 L 192.563 35.225 L 150.057 57.919 L 104.377 34.88 L 148.233 13 Z"/>
  <path fill="#4d77cf" d="M 138.944 144.914 L 102.77 126.728 L 102.77 205.334 C 102.77 205.334 58.533 111.207 54.434 102.752 C 53.906 101.661 51.731 100.464 51.175 100.174 C 43.243 96.009 20 84.235 20 84.235 L 20 223.11 L 52.154 240.298 L 52.154 167.708 C 52.154 167.708 95.922 251.813 96.365 252.732 C 96.808 253.652 101.205 262.516 105.898 265.629 C 112.151 269.768 138.951 285.884 138.951 285.884 L 138.944 144.914 Z"/>
</svg>
