<?xml version="1.0" encoding="utf-8"?>
<svg viewBox="0 0 512 512" xmlns="http://www.w3.org/2000/svg">
  <rect fill="#242938" x="0" y="0" width="512" height="512" rx="120" ry="120" transform="matrix(1, 0, 0, 1, 5.684341886080802e-14, -2.220446049250313e-16)"/>
  <path fill="#5586a4" d="M 105.586 222.116 C 105.765 222.029 105.945 221.942 106.126 221.857 C 111.134 219.496 116.967 218.314 123.62 218.314 C 130.272 218.314 136.105 219.497 141.112 221.857 C 146.12 224.217 150.31 227.38 153.674 231.342 C 157.038 235.304 159.564 239.857 161.246 244.998 C 162.929 250.14 163.772 255.491 163.772 261.053 C 163.772 266.614 162.928 271.969 161.246 277.109 C 159.564 282.251 157.038 286.804 153.674 290.766 C 150.31 294.727 146.12 297.871 141.112 300.194 C 136.105 302.514 130.272 303.679 123.62 303.679 C 116.968 303.679 111.134 302.515 106.126 300.194 C 105.091 299.714 104.077 299.191 103.086 298.626 C 129.184 322.286 179.426 338.304 237.123 338.304 C 284.054 338.304 326.118 328.804 354.201 312.114 C 323.467 340.057 268.644 359.768 206.051 359.757 C 109.8 359.743 31.781 315.721 31.79 261.435 C 31.799 207.148 109.832 163.152 206.081 163.167 C 268.925 163.176 323.889 182.949 354.545 211.089 C 326.46 194.294 284.226 184.618 237.123 184.618 C 181.217 184.618 132.309 199.657 105.586 222.116 M 96.231 273.264 C 97.329 277.269 99.052 280.871 101.404 284.073 C 103.755 287.276 106.771 289.85 110.456 291.795 C 114.137 293.74 118.524 294.71 123.62 294.71 C 128.715 294.71 133.102 293.74 136.786 291.795 C 140.468 289.85 143.484 287.276 145.836 284.073 C 148.186 280.871 149.91 277.269 151.007 273.264 C 153.202 265.291 153.202 256.875 151.007 248.903 C 149.91 244.898 148.186 241.296 145.836 238.092 C 143.484 234.89 140.467 232.318 136.786 230.371 C 133.102 228.426 128.714 227.454 123.619 227.454 C 118.525 227.454 114.137 228.426 110.456 230.371 C 106.771 232.318 103.755 234.89 101.404 238.091 C 99.052 241.296 97.329 244.898 96.231 248.902 C 95.14 252.87 94.587 256.966 94.588 261.081 C 94.588 265.199 95.134 269.26 96.231 273.264 M 180.312 249.876 L 180.312 256.924 L 180.487 256.924 C 181.929 254.038 184.193 251.939 187.281 250.629 C 190.369 249.32 193.763 248.665 197.47 248.665 C 201.585 248.665 205.17 249.404 208.225 250.88 C 211.277 252.356 213.815 254.352 215.839 256.865 C 217.863 259.382 219.388 262.281 220.42 265.567 C 221.448 268.853 221.964 272.34 221.964 276.029 C 221.964 279.718 221.465 283.204 220.472 286.493 C 219.476 289.779 217.968 292.646 215.944 295.094 C 213.919 297.54 211.379 299.47 208.327 300.876 C 205.271 302.282 201.722 302.988 197.674 302.988 C 196.369 302.988 194.911 302.854 193.3 302.586 C 191.666 302.31 190.062 301.871 188.516 301.278 C 186.918 300.663 185.411 299.831 184.036 298.81 C 182.618 297.755 181.412 296.439 180.487 294.932 L 180.312 294.932 L 180.312 321.786 L 171.487 321.786 L 171.487 249.876 L 180.312 249.876 Z M 211.634 268.371 C 210.983 266.06 209.994 263.997 208.659 262.187 C 207.323 260.376 205.612 258.934 203.524 257.863 C 201.434 256.79 198.989 256.254 196.183 256.254 C 193.238 256.254 190.74 256.825 188.688 257.965 C 186.633 259.104 184.957 260.595 183.655 262.438 C 182.354 264.28 181.413 266.378 180.831 268.724 C 180.252 271.06 179.959 273.456 179.96 275.863 C 179.96 278.411 180.265 280.875 180.884 283.254 C 181.499 285.637 182.475 287.729 183.81 289.54 C 185.144 291.351 186.87 292.81 188.994 293.915 C 191.118 295.021 193.686 295.574 196.696 295.574 C 199.708 295.574 202.222 295.005 204.241 293.865 C 206.26 292.726 207.887 291.218 209.119 289.339 C 210.35 287.463 211.241 285.319 211.789 282.904 C 212.335 280.489 212.611 278.01 212.611 275.463 C 212.611 273.064 212.283 270.679 211.634 268.371 M 266.973 298.566 C 262.986 301.514 257.969 302.988 251.919 302.988 C 247.655 302.988 243.957 302.318 240.83 300.979 C 237.699 299.637 235.069 297.758 232.937 295.344 C 230.806 292.929 229.206 290.046 228.142 286.692 C 227.077 283.339 226.477 279.683 226.338 275.727 C 226.338 271.771 226.956 268.151 228.196 264.862 C 229.435 261.575 231.172 258.724 233.409 256.31 C 235.645 253.895 238.295 252.02 241.356 250.678 C 244.418 249.337 247.773 248.665 251.422 248.665 C 256.171 248.665 260.109 249.624 263.241 251.538 C 266.375 253.454 268.886 255.889 270.778 258.846 C 272.671 261.802 274.001 265.082 274.703 268.521 C 275.426 272.016 275.718 275.342 275.58 278.5 L 235.693 278.5 C 235.623 280.776 235.896 282.936 236.514 284.977 C 237.132 287.02 238.125 288.828 239.498 290.402 C 240.871 291.975 242.62 293.229 244.749 294.166 C 246.875 295.104 249.379 295.572 252.261 295.572 C 255.964 295.572 259.001 294.735 261.367 293.055 C 263.733 291.377 265.294 288.825 266.049 285.398 L 274.708 285.398 C 273.539 291.229 270.961 295.618 266.974 298.566 M 264.836 265.188 C 264.048 263.382 262.986 261.825 261.652 260.521 C 260.314 259.217 258.736 258.179 256.922 257.41 C 255.104 256.638 253.1 256.253 250.908 256.253 C 248.646 256.253 246.605 256.638 244.79 257.41 C 242.974 258.179 241.415 259.233 240.114 260.57 C 238.804 261.921 237.758 263.504 237.029 265.239 C 236.275 267.013 235.831 268.904 235.694 270.912 L 266.227 270.912 C 266.097 268.938 265.627 267.002 264.836 265.188 M 289.724 249.876 L 289.724 258.135 L 289.891 258.135 C 293.547 251.824 299.346 248.665 307.286 248.665 C 310.804 248.665 313.737 249.137 316.087 250.078 C 318.434 251.018 320.332 252.328 321.783 254.006 C 323.233 255.685 324.251 257.682 324.837 259.999 C 325.422 262.316 325.717 264.886 325.717 267.706 L 325.717 301.954 L 316.893 301.954 L 316.893 266.721 C 316.893 263.502 315.927 260.953 314 259.071 C 312.069 257.193 309.419 256.253 306.045 256.253 C 303.361 256.253 301.036 256.657 299.072 257.463 C 297.11 258.269 295.474 259.408 294.167 260.885 C 292.861 262.362 291.878 264.089 291.225 266.067 C 290.569 268.046 290.243 270.211 290.243 272.561 L 290.243 301.953 L 281.419 301.953 L 281.419 249.876 L 289.724 249.876 Z M 386.72 301.388 C 382.736 303.029 378.711 303.851 374.653 303.851 C 368.244 303.851 362.483 302.759 357.365 300.581 C 352.246 298.403 347.931 295.401 344.414 291.574 C 340.899 287.751 338.204 283.256 336.328 278.094 C 334.453 272.931 333.516 267.364 333.516 261.398 C 333.516 255.28 334.452 249.6 336.32 244.361 C 338.191 239.122 340.879 234.552 344.387 230.649 C 347.895 226.747 352.205 223.689 357.32 221.47 C 362.436 219.252 368.196 218.142 374.606 218.142 C 378.902 218.142 383.061 218.774 387.084 220.038 C 391.107 221.304 394.739 223.163 397.982 225.616 C 401.225 228.068 403.9 231.091 406.009 234.684 C 408.119 238.279 409.411 242.4 409.877 247.057 L 392.302 247.057 C 391.206 242.479 389.096 239.043 385.971 236.753 C 382.845 234.463 379.056 233.317 374.605 233.317 C 370.463 233.317 366.947 234.101 364.058 235.67 C 361.167 237.238 358.822 239.343 357.025 241.98 C 355.227 244.621 353.919 247.623 353.102 250.988 C 352.278 254.354 351.871 257.832 351.871 261.427 C 351.871 264.871 352.281 268.217 353.103 271.467 C 353.926 274.717 355.236 277.643 357.033 280.244 C 358.831 282.843 361.178 284.926 364.073 286.495 C 366.967 288.063 370.487 288.847 374.636 288.847 C 380.736 288.847 385.446 287.344 388.771 284.337 C 392.097 281.329 394.033 276.97 394.581 271.256 L 376.067 271.256 L 376.067 257.805 L 411.171 257.805 L 411.171 302.016 L 399.491 302.016 L 397.62 292.741 C 394.34 296.863 390.704 299.746 386.719 301.388 M 441.007 220.21 L 441.007 286.777 L 481.79 286.777 L 481.79 301.953 L 422.651 301.953 L 422.651 220.211 L 441.007 220.21 Z" transform="matrix(1, 0, 0, 1, 5.684341886080802e-14, -2.220446049250313e-16)"/>
</svg>
