<?xml version="1.0" encoding="utf-8"?>
<svg viewBox="0 0 90 90" xmlns="http://www.w3.org/2000/svg">
  <linearGradient id="a" gradientUnits="userSpaceOnUse" x1="67.733323" x2="67.733323" y1="31.883125" y2="50.933122" gradientTransform="matrix(1, 0, 0, 1, 13.90625, 5.78125)">
    <stop offset="0" stop-color="#91e12a"/>
    <stop offset="1" stop-color="#7b8a49"/>
  </linearGradient>
  <linearGradient id="c" gradientUnits="userSpaceOnUse" x1="50.799992" x2="50.799992" y1="23.416458" y2="65.749786" gradientTransform="matrix(1, 0, 0, 1, 13.90625, 5.78125)">
    <stop offset="0" stop-color="#e12400"/>
    <stop offset="1" stop-color="#febe00"/>
  </linearGradient>
  <linearGradient id="b" gradientUnits="userSpaceOnUse" x1="84.666658" x2="84.666658" y1="23.416458" y2="65.749786" gradientTransform="matrix(1, 0, 0, 1, 13.90625, 5.78125)">
    <stop offset="0" stop-color="#2263ea"/>
    <stop offset="1" stop-color="#33c0f4"/>
  </linearGradient>
  <linearGradient id="d" gradientUnits="userSpaceOnUse" x1="52.91666" x2="52.91666" y1="40.349789" y2="65.749786" gradientTransform="matrix(1, 0, 0, 1, 13.90625, 5.78125)">
    <stop offset="0" stop-color="#f6d339"/>
    <stop offset="1" stop-color="#ffd55f"/>
  </linearGradient>
  <linearGradient id="e" gradientUnits="userSpaceOnUse" x1="82.549988" x2="82.549988" y1="40.349789" y2="65.749786" gradientTransform="matrix(1, 0, 0, 1, 13.90625, 5.78125)">
    <stop offset="0" stop-color="#99def2"/>
    <stop offset="1" stop-color="#84d2f8"/>
  </linearGradient>
  <rect width="90" height="90" fill="#242938" rx="20" transform="matrix(1, 0, 0, 1, -8.881784197001252e-16, 0)"/>
  <g transform="matrix(1, 0, 0, 1, -36.904388427734375, -20.770626068115234)">
    <path d="M 59.69 75.3 Q 63.11 75.3 65.05 78.01 L 65.18 78.01 L 65.59 75.64 L 69.86 75.64 L 69.86 94.18 Q 69.86 98.15 67.52 100.21 Q 65.18 102.28 60.6 102.28 Q 58.64 102.28 56.96 102.04 Q 55.28 101.81 53.69 101.2 L 53.69 97.16 Q 57.11 98.59 60.91 98.59 Q 64.81 98.59 64.81 94.38 L 64.81 94.01 Q 64.81 93.43 64.86 92.82 Q 64.91 92.21 64.94 91.74 L 64.81 91.74 Q 63.86 93.2 62.54 93.84 Q 61.22 94.48 59.55 94.48 Q 56.27 94.48 54.42 91.96 Q 52.57 89.43 52.57 84.92 Q 52.57 80.38 54.47 77.84 Q 56.37 75.3 59.69 75.3 Z M 61.28 79.4 Q 57.72 79.4 57.72 84.99 Q 57.72 90.52 61.35 90.52 Q 63.28 90.52 64.22 89.42 Q 65.15 88.31 65.15 85.57 L 65.15 84.96 Q 65.15 81.97 64.23 80.69 Q 63.32 79.4 61.28 79.4 Z M 82.28 75.3 Q 85.39 75.3 87.33 77.72 Q 89.26 80.14 89.26 84.86 Q 89.26 89.57 87.26 92.03 Q 85.26 94.48 82.14 94.48 Q 80.14 94.48 78.95 93.76 Q 77.77 93.03 77.02 92.11 L 76.75 92.11 Q 77.02 93.53 77.02 94.82 L 77.02 102.28 L 71.97 102.28 L 71.97 75.64 L 76.07 75.64 L 76.78 78.04 L 77.02 78.04 Q 77.77 76.92 79.02 76.11 Q 80.28 75.3 82.28 75.3 Z M 80.65 79.33 Q 78.68 79.33 77.89 80.55 Q 77.09 81.77 77.02 84.28 L 77.02 84.82 Q 77.02 87.5 77.82 88.94 Q 78.61 90.38 80.72 90.38 Q 82.45 90.38 83.28 88.94 Q 84.11 87.5 84.11 84.79 Q 84.11 79.33 80.65 79.33 Z M 108.64 75.64 L 108.64 94.14 L 104.78 94.14 L 104.1 91.77 L 103.83 91.77 Q 102.95 93.2 101.4 93.84 Q 99.86 94.48 98.13 94.48 Q 95.15 94.48 93.35 92.87 Q 91.56 91.26 91.56 87.7 L 91.56 75.64 L 96.61 75.64 L 96.61 86.45 Q 96.61 88.42 97.32 89.43 Q 98.03 90.45 99.59 90.45 Q 101.9 90.45 102.74 88.87 Q 103.59 87.3 103.59 84.35 L 103.59 75.64 Z" style="fill: rgb(245, 245, 245); stroke-width: 0.264583px;"/>
    <path d="M 75.289 46.131 L 81.639 37.664 L 87.989 46.131 L 81.639 56.714 L 75.289 46.131 Z" fill="url(#a)"/>
    <path d="M 64.706 29.198 L 56.239 71.531 L 75.289 46.131 L 64.706 29.198 Z" fill="url(#c)"/>
    <path d="M 107.039 71.531 L 87.989 46.131 L 98.573 29.198 L 107.039 71.531 Z" fill="url(#b)"/>
    <path d="M 56.239 71.531 L 75.289 46.131 L 81.639 56.714 L 73.173 71.531 L 56.239 71.531 Z" fill="url(#d)"/>
    <path d="M 81.639 56.714 L 87.989 46.131 L 107.039 71.531 L 90.106 71.531 L 81.639 56.714 Z" fill="url(#e)"/>
  </g>
</svg>
